<?xml version="1.0" encoding="UTF-8"?><svg id="b" xmlns="http://www.w3.org/2000/svg" width="180" height="79.53" viewBox="0 0 180 79.53"><defs><style>.d{fill:#241714;}.e{fill:#e50012;}.f{fill:#0067a6;}</style></defs><g id="c"><polygon class="f" points="180 0 111.45 0 111.45 58.26 126.81 58.26 126.81 13.08 137.94 13.08 138 58.26 153.36 58.26 153.36 13.08 164.7 13.08 164.7 58.26 180 58.26 180 0"/><polygon class="f" points="108.24 58.26 93.45 58.26 91.32 58.26 91.32 0 93.45 0 108.24 0 108.24 58.26"/><rect class="e" y="0" width="40.74" height="13.38"/><rect class="e" y="22.92" width="38.34" height="13.38"/><rect class="e" y="44.94" width="40.8" height="13.35"/><polygon class="e" points="37.56 0 54.99 0 65.88 16.59 76.68 0 93.45 0 74.55 29.55 93.45 58.26 75.12 58.26 65.64 43.59 56.28 58.26 38.76 58.26 57.09 30.18 37.56 0"/><polygon class="d" points="7.41 64.86 7.41 79.53 5.43 79.53 5.43 64.86 .03 64.86 .03 63.18 12.78 63.18 12.78 64.86 7.41 64.86"/><polygon class="d" points="25.56 79.53 25.56 71.97 16.89 71.97 16.89 79.53 14.94 79.53 14.94 63.18 16.89 63.18 16.89 70.26 25.56 70.26 25.56 63.18 27.51 63.18 27.51 79.53 25.56 79.53"/><path class="d" d="m36.87,65.13l-2.79,7.74h5.19l-2.4-7.74Zm4.74,14.4l-1.74-5.04h-6.42l-1.86,5.04h-2.07l5.91-16.35h2.67l5.7,16.35h-2.19Z"/><rect class="d" x="46.32" y="63.18" width="1.95" height="16.35"/><polygon class="d" points="51.84 79.53 51.84 63.18 53.82 63.18 53.82 77.73 61.95 77.73 61.95 79.53 51.84 79.53"/><path class="d" d="m70.11,65.13l-2.79,7.74h5.19l-2.4-7.74Zm4.77,14.4l-1.74-5.04h-6.42l-1.86,5.04h-2.07l5.91-16.35h2.64l5.7,16.35h-2.16Z"/><polygon class="d" points="89.49 79.53 80.85 65.97 80.85 79.53 78.96 79.53 78.96 63.18 81.27 63.18 89.82 76.86 89.82 63.18 91.74 63.18 91.74 79.53 89.49 79.53"/><path class="d" d="m106.26,71.4c.03-.84-.03-1.65-.21-2.43-.15-.78-.45-1.47-.81-2.1-.39-.6-.9-1.11-1.53-1.47-.63-.36-1.41-.54-2.34-.54h-4.14v12.93h4.74c.3,0,.57-.03.84-.06.27-.03.6-.15.93-.3.63-.3,1.2-.99,1.71-2.04.48-1.02.75-2.34.81-3.99m1.89-1.56c.12,1.44.06,2.82-.18,4.02-.24,1.23-.75,2.31-1.47,3.18-.72.9-1.44,1.53-2.1,1.92-.69.36-1.23.57-1.65.57h-7.47v-16.35h6.3c1.74,0,3.24.57,4.44,1.74,1.2,1.14,1.92,2.76,2.13,4.92"/></g></svg>